<?xml version="1.0" standalone="no"?><!DOCTYPE svg PUBLIC "-//W3C//DTD SVG 1.1//EN" "http://www.w3.org/Graphics/SVG/1.1/DTD/svg11.dtd"><svg t="1775369340579" class="icon" viewBox="0 0 1024 1024" version="1.1" xmlns="http://www.w3.org/2000/svg" p-id="11934" xmlns:xlink="http://www.w3.org/1999/xlink" width="200" height="200"><path d="M1024 512L868.124444 172.657778V139.662222H582.826667c0-48.071111-32.142222-82.773333-74.24-82.773333-40.106667 0-74.24 32.426667-74.24 82.773333H153.031111v38.4L0 512v0.284444c0 98.702222 72.248889 188.871111 184.32 188.871112 114.346667 0 184.035556-89.884444 184.32-188.871112V512L228.977778 206.791111h222.151111v643.982222H233.244444c-83.626667 0-118.328889 40.675556-118.328888 116.337778h794.168888c0-65.137778-34.133333-116.337778-118.328888-116.337778h-230.684445V206.791111h235.235556L655.644444 512h-0.284444c0 98.986667 72.248889 188.871111 184.32 188.871111C954.026667 701.155556 1024 610.986667 1024 512c0 0.284444 0 0 0 0z m-735.004444 0.284444H79.644444L184.32 250.311111l104.675556 261.973333z m446.008888 0l104.675556-261.973333 104.675556 261.973333h-209.351112z" fill="#1296db" p-id="11935"></path></svg>