<?xml version="1.0" standalone="no"?><!DOCTYPE svg PUBLIC "-//W3C//DTD SVG 1.1//EN" "http://www.w3.org/Graphics/SVG/1.1/DTD/svg11.dtd"><svg t="1775369410366" class="icon" viewBox="0 0 1024 1024" version="1.1" xmlns="http://www.w3.org/2000/svg" p-id="14919" xmlns:xlink="http://www.w3.org/1999/xlink" width="200" height="200"><path d="M808.846222 544.256c-39.025778-81.976889-179.2-172.088889-179.2-172.088889l-62.293333 426.325333s-77.880889-65.592889-77.880889-98.360888c-7.793778-49.208889 109.056-327.964444 109.056-327.964445l-77.880889 24.632889-93.525333-24.632889c-85.617778 8.135111-272.725333 237.738667-303.957334 319.658667-23.324444 73.728 0 164.010667 31.232 180.394666 54.499556 32.824889 171.406222 24.632889 171.406223 24.632889l-12.970667 124.814223h423.196444l-24.917333-285.809778s35.555556 95.459556 43.292445 144.611555c7.793778 49.208889 6.542222 141.198222 6.542222 141.198223h149.219555c-0.398222-7.566222-1.706667-43.52-7.623111-149.333334-7.907556-139.434667-46.876444-237.795556-93.696-328.078222z m-303.843555 303.445333c-7.793778 8.135111-77.880889 16.384-148.081778 16.384-70.087111 0-148.138667 0-163.612445-16.384-15.587556-16.384-46.819556-41.073778-31.288888-106.552889 0-90.225778 179.370667-278.755556 194.901333-295.139555 0 0 93.525333 237.681778 116.849778 278.755555 23.324444 41.073778 46.819556 65.592889 46.819555 65.592889s0 40.789333-15.587555 57.344z m405.048889 173.852445c0.113778 1.934222 0.113778 2.446222 0 0zM526.848 340.707556c93.070222 0 168.448-76.288 168.448-170.382223 0-94.094222-75.377778-170.382222-168.448-170.382222S358.286222 76.231111 358.286222 170.325333c0 94.094222 75.491556 170.382222 168.561778 170.382223z" fill="#1296db" p-id="14920"></path></svg>