<?xml version="1.0" standalone="no"?><!DOCTYPE svg PUBLIC "-//W3C//DTD SVG 1.1//EN" "http://www.w3.org/Graphics/SVG/1.1/DTD/svg11.dtd"><svg t="1775146601973" class="icon" viewBox="0 0 1024 1024" version="1.1" xmlns="http://www.w3.org/2000/svg" p-id="12692" xmlns:xlink="http://www.w3.org/1999/xlink" width="200" height="200"><path d="M772.691347 724.942857c0 0.38681 0.134053 0.698918 0.134053 1.12973 0 28.081569 14.456247 74.461899 23.666002 90.325192l-0.047072 0c0.712221 1.710968 1.167592 3.594875 1.167592 5.592368 0 7.868201-6.347568 14.19121-14.2127 14.19121-1.154289 0-3.052522-0.231267-3.707438-0.231267-0.222057 0-0.278339 0-0.25685 0.044002-48.950875-7.977695-109.085464-65.339124-119.837342-78.365812-10.985192 1.610684-18.419512 1.863441-27.626197 1.863441-3.908006 0-8.067746-0.044002-12.982686-0.044002-90.402963 0-162.466232-33.962509-206.535937-87.785346 1.607614-1.407046 73.803913-1.429559 63.454194-0.799202 38.122249 29.836539 82.801844 44.204781 143.081743 44.204781 0 0 24.964578-0.01228 34.195823-1.367137l23.344684-3.591805c0 0 14.877849 26.5067 58.183144 58.249659-3.39533-14.390755-5.704932-71.253834-5.704932-71.253834l22.080901-10.960633c51.838645-26.53126 74.137511-61.247946 74.137511-109.110023 0-39.089273-10.80509-65.995063-48.708352-92.192725 4.962012-15.077394 9.521864-32.242332 10.951423-48.239677 58.639538 34.417881 82.139765 80.273255 82.139765 140.432403C869.596398 641.661082 838.908468 691.068352 772.691347 724.942857L772.691347 724.942857zM453.849602 624.964818c-5.701862 0-10.529821 0.065492-15.034415 0.065492-10.663874 0-19.240203-0.309038-31.963992-2.184759-12.393261 15.098883-95.996354 78.831416-152.647609 88.085174 0.021489-0.068562-0.068562-0.068562-0.278339-0.068562-0.776689 0-2.973728 0.277316-4.316306 0.277316-9.098215 0-16.422018-7.299243-16.422018-16.396435 0-2.318812 0.499373-4.494361 1.342578-6.478552l-0.044002 0c10.664897-18.375509 37.72623-62.954821 37.72623-95.463212 0-0.499373 0.130983-0.845251 0.130983-1.298576-76.621075-39.176254-113.313765-118.919437-113.313765-193.722096 0-120.096239 129.802298-216.101803 289.971208-216.101803 160.137187 0 287.199071 96.005564 287.199071 216.101803C738.096435 533.496593 613.995999 624.964818 453.849602 624.964818L453.849602 624.964818zM448.973548 229.010811c-132.86096 0-240.96098 74.821079-240.96098 168.484296 0 56.235792 27.129894 120.461559 87.446631 151.313218l23.733541 12.128225-2.048659 26.637684c0 0 0.642636 13.292748-14.07353 55.267744 24.197098-15.21861 52.28583-38.676881 58.749032-46.14497l27.879977-23.153326 24.297382 1.696642c20.825304 3.080152 41.092907 2.296299 41.092907 2.296299 132.863007 0 231.710292-76.211752 232.111428-180.040493C687.213557 303.832913 581.836555 229.010811 448.973548 229.010811L448.973548 229.010811zM448.999131 226.057549" fill="#1296db" p-id="12693"></path></svg>