<?xml version="1.0" standalone="no"?><!DOCTYPE svg PUBLIC "-//W3C//DTD SVG 1.1//EN" "http://www.w3.org/Graphics/SVG/1.1/DTD/svg11.dtd"><svg t="1775369512905" class="icon" viewBox="0 0 1155 1024" version="1.1" xmlns="http://www.w3.org/2000/svg" p-id="22211" xmlns:xlink="http://www.w3.org/1999/xlink" width="225.5859375" height="200"><path d="M1075.007142 94.434245H512.497803l-17.585945-58.202252A50.686066 50.686066 0 0 0 446.217259 0.000128H80.301119A80.301119 80.301119 0 0 0 0 80.301248v693.15926a80.301119 80.301119 0 0 0 80.044156 80.301119V220.025195a50.830608 50.830608 0 0 1 50.878789-50.878789h893.590854A50.830608 50.830608 0 0 1 1075.392588 220.025195v633.736432h29.036884a50.991211 50.991211 0 0 0 50.87879-50.878789V174.735364a80.301119 80.301119 0 0 0-80.30112-80.301119z" fill="#1296db" p-id="22212"></path><path d="M1075.007142 264.672617H80.301119a80.301119 80.301119 0 0 0-80.301119 80.301119v598.725145a80.301119 80.301119 0 0 0 80.301119 80.301119h1024.128353a50.991211 50.991211 0 0 0 50.87879-50.878789V344.973736a80.301119 80.301119 0 0 0-80.30112-80.301119zM358.946003 415.959926a106.800488 106.800488 0 1 1-106.800489 106.800488 106.800488 106.800488 0 0 1 106.800489-106.800488zM542.835566 773.171424A57.142276 57.142276 0 0 1 485.709349 830.313701H230.576634A57.142276 57.142276 0 0 1 173.450417 773.171424a97.533739 97.533739 0 0 1 97.244656-97.244655h174.895837A97.533739 97.533739 0 0 1 542.835566 773.171424zM975.658598 812.647454h-269.811761a32.923459 32.923459 0 0 1 0-65.846917h269.811761a32.923459 32.923459 0 0 1 0 65.846917z m0-167.026327h-269.811761a32.923459 32.923459 0 0 1 0-65.846918h269.811761a32.923459 32.923459 0 0 1 0 65.846918z" fill="#1296db" p-id="22213"></path></svg>