<?xml version="1.0" standalone="no"?><!DOCTYPE svg PUBLIC "-//W3C//DTD SVG 1.1//EN" "http://www.w3.org/Graphics/SVG/1.1/DTD/svg11.dtd"><svg t="1775309362634" class="icon" viewBox="0 0 1049 1024" version="1.1" xmlns="http://www.w3.org/2000/svg" p-id="7592" xmlns:xlink="http://www.w3.org/1999/xlink" width="204.8828125" height="200"><path d="M764.90855011 817.60064944a52.75974023 52.75974023 0 0 1-52.69210016 52.69209934H332.61688287a52.75974023 52.75974023 0 0 1-52.69209933-52.69209934V258.34740247h484.98376657v559.25324697zM385.57954581 163.78571397a10.61958911 10.61958911 0 0 1 10.82251016-10.82251018h252.976191a10.61958911 10.61958911 0 0 1 10.82251099 10.82251018v31.72348552h-274.62121216z m537.67586508 31.72348552h-200.21644995v-31.72348552A73.86363666 73.86363666 0 0 0 649.37824697 90.125H396.13149319a73.86363666 73.86363666 0 0 0-73.66071396 73.66071397v31.72348552H121.78084381a31.79112561 31.79112561 0 1 0 0 63.51461033h94.69697031v558.64448052a116.20670965 116.20670965 0 0 0 116.20670965 116.20670966h379.53192618a116.20670965 116.20670965 0 0 0 116.20671048-116.20670966V258.34740247h94.69696948a31.72348471 31.72348471 0 0 0 31.72348472-31.79112562 31.11471826 31.11471826 0 0 0-31.72348472-31.04707736z m-400.83874448 579.54545425a31.72348471 31.72348471 0 0 0 31.79112561-31.72348471V405.60119031a31.79112561 31.79112561 0 1 0-63.51461033 0v337.72997873a31.65584381 31.65584381 0 0 0 31.72348472 31.72348471z m-147.86255346 0a31.72348471 31.72348471 0 0 0 31.72348471-31.72348471V405.60119031a31.79112561 31.79112561 0 1 0-63.51461033 0v337.72997873a32.60281394 32.60281394 0 0 0 31.72348472 31.72348471z m295.86038955 0a31.72348471 31.72348471 0 0 0 31.72348472-31.72348471V405.60119031a31.79112561 31.79112561 0 1 0-63.51461033 0v337.72997873a31.72348471 31.72348471 0 0 0 31.72348471 31.72348471z" fill="#2c2c2c" p-id="7593"></path></svg>