<?xml version="1.0" standalone="no"?><!DOCTYPE svg PUBLIC "-//W3C//DTD SVG 1.1//EN" "http://www.w3.org/Graphics/SVG/1.1/DTD/svg11.dtd"><svg t="1775369379160" class="icon" viewBox="0 0 1024 1024" version="1.1" xmlns="http://www.w3.org/2000/svg" p-id="12991" xmlns:xlink="http://www.w3.org/1999/xlink" width="200" height="200"><path d="M985.507261 632.170758a505.10498 505.10498 0 0 0-240.199849-317.252689c-10.711381-6.2771-21.825879-11.517614-32.940377-17.276422a819.93897 819.93897 0 0 0-403.116505 0C114.833199 388.112508 34.325074 525.978353 20.273585 727.363841a482.875984 482.875984 0 0 0 12.611787 155.487794 184.281831 184.281831 0 0 0 177.14091 141.148365c201.097548-0.460705 402.310271 0 603.407819-0.28794a174.607035 174.607035 0 0 0 150.420045-81.832651 210.196463 210.196463 0 0 0 31.846203-89.261511 526.470155 526.470155 0 0 0-10.193088-220.274376z m-339.251333 187.967467H564.711218a1.842818 1.842818 0 0 0-1.78523 1.842818v39.102301h-0.287941a52.981026 52.981026 0 0 1 1.036586 9.84756 51.829265 51.829265 0 1 1-102.334004-9.84756H460.073691v-39.102301a1.842818 1.842818 0 0 0-1.842818-1.78523H377.262043a40.772355 40.772355 0 1 1 0-81.54471h80.96883a1.842818 1.842818 0 0 0 1.842818-1.957995v-36.856366a1.842818 1.842818 0 0 0-1.842818-1.78523h-80.623301a40.772355 40.772355 0 1 1 0-81.54471H451.43548a1.612466 1.612466 0 0 0 1.78523-1.266938 26.375337 26.375337 0 0 1 2.245935-4.722221 1.842818 1.842818 0 0 0-0.28794-2.303523L363.440906 517.858435a35.819781 35.819781 0 0 1 8.350271-48.949862 37.201895 37.201895 0 0 1 49.87127-8.177506l89.146336 88.052162a1.900406 1.900406 0 0 0 2.706639 0l82.638883-86.727636a40.657179 40.657179 0 0 1 55.802842 5.470867c16.067072 16.067072 24.129402 30.636854 8.177506 48.37398l-97.035901 97.899723a1.842818 1.842818 0 0 0 1.20935 3.167344h81.429533a40.714767 40.714767 0 1 1 0 81.429534H564.711218a1.842818 1.842818 0 0 0-1.78523 1.842818v36.856366a1.842818 1.842818 0 0 0 1.78523 1.842818h81.602298a40.599591 40.599591 0 1 1 0 81.141594z m-367.930192-575.30484a815.447101 815.447101 0 0 1 464.505389 0 206.856355 206.856355 0 0 0 23.89905-46.473574c5.470867-15.145663 8.465447-31.097559 12.726964-46.703927a84.078585 84.078585 0 0 0-27.757451-91.39227 114.830616 114.830616 0 0 0-126.693759-17.276422 6.104336 6.104336 0 0 1-8.292682-0.748645A156.178851 156.178851 0 0 0 405.13467 41.029198a6.334688 6.334688 0 0 1-8.35027 1.49729 117.249315 117.249315 0 0 0-74.864494-8.06233 97.899723 97.899723 0 0 0-81.429534 107.977635 231.158521 231.158521 0 0 0 37.892952 102.391592z m0 0" fill="#1296db" p-id="12992"></path></svg>