<?xml version="1.0" standalone="no"?><!DOCTYPE svg PUBLIC "-//W3C//DTD SVG 1.1//EN" "http://www.w3.org/Graphics/SVG/1.1/DTD/svg11.dtd"><svg t="1775310281506" class="icon" viewBox="0 0 1024 1024" version="1.1" xmlns="http://www.w3.org/2000/svg" p-id="9731" width="200" height="200" xmlns:xlink="http://www.w3.org/1999/xlink"><path d="M522.3 156.3c-5.1-9.7-13.5-9.7-18.6 0L107.3 909.9c-5.1 9.7-0.3 17.7 10.7 17.7h790c11 0 15.8-8 10.7-17.7L522.3 156.3z m-18.6 119c5.1-9.7 13.5-9.7 18.6 0l304.5 579c5.1 9.7 0.3 17.7-10.7 17.7H209.8c-11 0-15.8-8-10.7-17.7l304.6-579z" fill="#ecd412" p-id="9732"></path><path d="M485.5 468.9c0-11 9-20 20-20h15c11 0 20 9 20 20v170.6c0 11-9 20-20 20h-15c-11 0-20-9-20-20V468.9zM461.5 762.9c0-28.8 23.1-52.1 51.5-52.1 28.5 0 51.5 23.3 51.5 52.1S541.4 815 513 815s-51.5-23.3-51.5-52.1z" fill="#ecd412" p-id="9733"></path></svg>