<?xml version="1.0" standalone="no"?><!DOCTYPE svg PUBLIC "-//W3C//DTD SVG 1.1//EN" "http://www.w3.org/Graphics/SVG/1.1/DTD/svg11.dtd"><svg t="1775367009604" class="icon" viewBox="0 0 1024 1024" version="1.1" xmlns="http://www.w3.org/2000/svg" p-id="4789" xmlns:xlink="http://www.w3.org/1999/xlink" width="200" height="200"><path d="M257.4 399.4c25.4-98.2 106.8-170 207.6-182.6 18.6-2.4 32-19.4 29.6-38-2.4-18.6-19.6-32-38-29.6C328 165.4 224 256.8 191.6 382.4c-4.8 18.2 6.2 36.8 24.4 41.6 2.8 0.8 5.8 1 8.6 1 15 0 29-10.2 32.8-25.6z" fill="#1296db" p-id="4790"></path><path d="M964 915L825 776c75.8-81.2 122.6-189.8 122.6-309.4C947.6 215.8 743.6 12 493 12 242.4 12 38.4 215.8 38.4 466.6c0 90.2 26.4 177.4 76.4 252.2 10.4 15.8 31.6 19.8 47.2 9.4 15.6-10.4 19.8-31.6 9.4-47.2-42.4-63.6-65-137.8-65-214.4 0-213 173.4-386.4 386.4-386.4s386.4 173.4 386.4 386.4S706 853 493 853c-76.8 0-151.2-22.6-214.8-65.2-15.6-10.4-36.8-6.4-47.4 9.4-10.4 15.6-6.2 36.8 9.4 47.4 75 50.2 162.4 76.8 252.8 76.8 90 0 173.8-26.6 244.4-72l146.2 146.2c11 11 25.6 16.6 40.2 16.6 14.6 0 29-5.6 40.2-16.6 22.2-22.4 22.2-58.4 0-80.6z" fill="#1296db" p-id="4791"></path></svg>