<?xml version="1.0" standalone="no"?><!DOCTYPE svg PUBLIC "-//W3C//DTD SVG 1.1//EN" "http://www.w3.org/Graphics/SVG/1.1/DTD/svg11.dtd"><svg t="1775146491534" class="icon" viewBox="0 0 1024 1024" version="1.1" xmlns="http://www.w3.org/2000/svg" p-id="9501" xmlns:xlink="http://www.w3.org/1999/xlink" width="200" height="200"><path d="M512 0C229.6832 0 0 229.6832 0 512s229.6832 512 512 512 512-229.6832 512-512S794.3168 0 512 0z m282.56256 167.424c56.87296 46.75584 102.05184 107.23328 130.33472 176.37376l-53.63712 17.3056c-19.6608-46.77632-48.57856-89.68192-85.87264-126.44352-8.99072-8.86784-18.35008-17.2032-27.99616-25.06752l37.1712-42.16832zM512 66.06848c83.39456 0 161.44384 23.06048 228.2496 63.0784l-37.94944 43.04896c-59.16672-33.21856-126.2592-50.50368-195.95264-49.58208-71.3728 1.00352-139.96032 21.58592-199.5776 58.94144l-29.32736-48.57856C345.64096 90.60352 425.984 66.06848 512 66.06848zM223.86688 172.05248l29.7984 49.33632c-5.38624 4.79232-10.69056 9.70752-15.83104 14.848-45.95712 45.69088-79.17568 100.80256-97.81248 160.80896l-56.5248-8.4992C108.15488 303.104 157.77792 228.1472 223.86688 172.05248zM172.9536 801.1776c-66.56-77.9264-106.88512-178.91328-106.88512-289.1776 0-19.88608 1.35168-39.46496 3.8912-58.6752l55.93088 8.3968c-1.82272 13.98784-2.9696 28.09856-3.25632 42.37312-1.9456 97.83296 31.49824 189.93152 94.78144 262.71744L172.9536 801.1776zM512 957.93152c-111.69792 0-213.85216-41.3696-292.16768-109.48608l63.40608-49.0496c8.45824-6.5536 13.66016-16.44544 14.27456-27.136a36.94592 36.94592 0 0 0-11.14112-28.61056c-64.79872-63.11936-99.49184-147.72224-97.6896-238.26432 3.42016-172.19584 146.35008-314.28608 318.58688-316.74368 87.53152-1.26976 169.61536 31.80544 231.7312 93.04064C801.15712 342.95808 835.3792 424.7552 835.3792 512c0 88.63744-35.16416 171.35616-99.0208 232.87808a42.309632 42.309632 0 0 0-12.88192 32.70656 42.57792 42.57792 0 0 0 16.34304 31.35488l57.89696 45.11744c-77.43488 64.77824-177.09056 103.87456-285.71648 103.87456z m333.53728-150.38464l-44.42112-34.59072c64.90112-71.63904 100.33152-163.28704 100.33152-260.95616 0-30.02368-3.4816-59.47392-10.0352-87.98208l53.84192-17.36704c8.21248 33.792 12.67712 69.05856 12.67712 105.34912 0 113.29536-42.53696 216.80128-112.39424 295.54688z" fill="#1296db" p-id="9502"></path><path d="M545.03424 493.48608v-203.03872c0-18.24768-14.78656-33.03424-33.03424-33.03424s-33.03424 14.78656-33.03424 33.03424v203.03872c-38.37952 13.6192-65.92512 50.13504-65.92512 93.184 0 54.66112 44.29824 98.95936 98.95936 98.95936s98.95936-44.29824 98.95936-98.95936c0-43.04896-27.5456-79.5648-65.92512-93.184z" fill="#1296db" p-id="9503"></path></svg>