<?xml version="1.0" standalone="no"?><!DOCTYPE svg PUBLIC "-//W3C//DTD SVG 1.1//EN" "http://www.w3.org/Graphics/SVG/1.1/DTD/svg11.dtd"><svg t="1775146714341" class="icon" viewBox="0 0 1024 1024" version="1.1" xmlns="http://www.w3.org/2000/svg" p-id="16999" xmlns:xlink="http://www.w3.org/1999/xlink" width="200" height="200"><path d="M766.464 295.5264H263.5776c-14.848 0-26.7264-11.8784-26.7264-26.7264 0-14.848 11.8784-26.7264 26.7264-26.7264h502.8864c14.848 0 26.7264 11.8784 26.7264 26.7264-0.1024 14.848-11.9808 26.7264-26.7264 26.7264z m0 191.8976H263.5776c-14.848 0-26.7264-11.8784-26.7264-26.7264 0-14.848 11.8784-26.7264 26.7264-26.7264h502.8864c14.848 0 26.7264 11.8784 26.7264 26.7264-0.1024 14.848-11.9808 26.7264-26.7264 26.7264zM620.6464 684.3392h-347.136c-14.848 0-26.7264-11.8784-26.7264-26.7264 0-14.7456 11.8784-26.7264 26.7264-26.7264h347.136c14.848 0 26.7264 11.8784 26.7264 26.7264 0 14.848-11.8784 26.7264-26.7264 26.7264z m0 0" p-id="17000" fill="#1296db"></path><path d="M874.0864 13.5168H162.6112c-40.6528 0-73.6256 29.9008-73.6256 66.7648v867.7376c0 36.864 32.9728 66.7648 73.6256 66.7648h532.8896l2.1504-1.8432 248.1152-225.0752 2.1504-1.8432V80.2816c-0.1024-36.864-33.0752-66.7648-73.8304-66.7648zM697.4464 937.3696v-136.192c0-7.3728 6.5536-13.312 14.6432-13.312h150.2208l-164.864 149.504z m14.848-202.9568c-40.6528 0-73.6256 29.9008-73.6256 66.7648v160.256H162.6112c-8.0896 0-14.6432-6.0416-14.6432-13.312V80.2816c0-7.3728 6.5536-13.312 14.6432-13.312h711.68c8.0896 0 14.6432 6.0416 14.6432 13.312v654.1312H712.2944z m0 0" p-id="17001" fill="#1296db"></path><path d="M697.4464 1019.904H162.6112c-43.4176 0-78.7456-32.256-78.7456-71.8848V80.2816c0-39.6288 35.328-71.8848 78.7456-71.8848h711.5776c43.4176 0 78.7456 32.256 78.7456 71.8848v707.9936l-3.7888 3.3792-248.1152 225.0752-3.584 3.1744zM162.6112 18.6368c-37.7856 0-68.5056 27.648-68.5056 61.6448v867.7376c0 33.9968 30.72 61.6448 68.5056 61.6448h530.944l0.6144-0.6144 248.0128-225.0752 0.4096-0.4096V80.2816c0-33.9968-30.72-61.6448-68.5056-61.6448H162.6112z m481.0752 947.9168H162.6112c-10.9568 0-19.7632-8.2944-19.7632-18.432V80.2816c0-10.1376 8.9088-18.432 19.7632-18.432h711.68c10.9568 0 19.7632 8.2944 19.7632 18.432v659.2512H712.2944c-37.7856 0-68.5056 27.648-68.5056 61.6448v165.376zM162.6112 72.0896c-5.3248 0-9.5232 3.6864-9.5232 8.192v867.7376c0 4.5056 4.3008 8.192 9.5232 8.192h470.9376V801.1776c0-39.6288 35.328-71.8848 78.7456-71.8848h171.52V80.2816c0-4.5056-4.3008-8.192-9.5232-8.192h-711.68z m529.7152 876.8512V801.1776c0-10.1376 8.9088-18.432 19.7632-18.432H875.52L692.3264 948.9408z m19.8656-155.9552c-5.2224 0-9.5232 3.6864-9.5232 8.192v124.6208l146.432-132.8128H712.192z" p-id="17002" fill="#1296db"></path></svg>