<?xml version="1.0" standalone="no"?><!DOCTYPE svg PUBLIC "-//W3C//DTD SVG 1.1//EN" "http://www.w3.org/Graphics/SVG/1.1/DTD/svg11.dtd"><svg t="1775146676877" class="icon" viewBox="0 0 1024 1024" version="1.1" xmlns="http://www.w3.org/2000/svg" p-id="15903" xmlns:xlink="http://www.w3.org/1999/xlink" width="200" height="200"><path d="M950.2 904.9l-94.4-94.8c59.2-81.2 52.2-195.6-21-268.9-40.5-40.5-93.6-60.8-146.7-60.8-53.1 0-106.2 20.3-146.7 60.8-81 81-81 212.4 0 293.4 40.5 40.5 93.6 60.8 146.7 60.8 43.1 0 86.2-13.3 122.6-40L905 950c6.3 6.3 14.5 9.4 22.7 9.4s16.3-3.1 22.6-9.3c12.3-12.4 12.3-32.7-0.1-45.2zM688 831.5c-38.3 0-74.4-14.9-101.5-42-27.1-27.1-42-63.1-42-101.5s14.9-74.4 42-101.5c27.1-27.1 63.1-42 101.5-42s74.4 14.9 101.5 42c27.1 27.1 42 63.1 42 101.5s-14.9 74.4-42 101.5c-27.1 27.1-63.2 42-101.5 42z" fill="#1296db" p-id="15904"></path><path d="M474.8 832.5H166.5c-25.9 0-38-6.1-38-32s12.1-32 38-32h276.9c-6.8-20.8-10.9-42.3-12.3-64H256.5v-576h448V431c21.7 1.4 43.2 5.5 64 12.3V64.5h-640c-35.3 0-64 28.7-64 64v704c0 35.3 28.7 64 64 64h408.3c-10.8-7.9-21.2-16.7-30.9-26.4-11.7-11.8-22.1-24.4-31.1-37.6z m-346.3-704h64v576h-64v-576z" fill="#1296db" p-id="15905"></path></svg>