<?xml version="1.0" standalone="no"?><!DOCTYPE svg PUBLIC "-//W3C//DTD SVG 1.1//EN" "http://www.w3.org/Graphics/SVG/1.1/DTD/svg11.dtd"><svg t="1775146437994" class="icon" viewBox="0 0 1024 1024" version="1.1" xmlns="http://www.w3.org/2000/svg" p-id="6158" xmlns:xlink="http://www.w3.org/1999/xlink" width="200" height="200"><path d="M112.3 195.9H763c25.8 0 46.5-20.8 46.5-46.5s-20.9-46.5-46.5-46.5H112.3c-25.8 0-46.5 20.8-46.5 46.5 0 25.9 20.9 46.5 46.5 46.5z m401 186h-401c-25.8 0-46.5 20.8-46.5 46.5 0 25.8 20.9 46.5 46.5 46.5h307.5c24.8-36.9 56.6-68.5 93.5-93z m-401 278.9c-25.8 0-46.5 20.8-46.5 46.5 0 25.8 20.9 46.4 46.5 46.4h264.4c-8.6-29.5-13.4-60.7-13.4-92.9h-251z m696.9-235.1c-33.8-16-71.3-25.3-111.2-25.3-70.9 0-135.1 28.4-182.1 74.3-48.2 47.3-78.2 113.1-78.2 186 0 32.8 6.4 64 17.4 92.9C492.5 851.5 587 921 698 921c143.7 0 260.2-116.5 260.2-260.2 0-104-61-193.4-149-235.1zM822.3 757l-34-10.8-90.3-28.8c-18.5-7.1-34-11.3-34-33.9v-22.6l0.4-146.8s-0.4-23 23-23c23.5 0 22.2 22.2 22.2 22.2l-0.3 147.6v11.3L845 717.4s22.6 5.6 17 28.3c-5.6 22.6-39.7 11.3-39.7 11.3z m0 0" fill="#2C6DF8" p-id="6159"></path></svg>