<?xml version="1.0" standalone="no"?><!DOCTYPE svg PUBLIC "-//W3C//DTD SVG 1.1//EN" "http://www.w3.org/Graphics/SVG/1.1/DTD/svg11.dtd"><svg t="1775313053502" class="icon" viewBox="0 0 1024 1024" version="1.1" xmlns="http://www.w3.org/2000/svg" p-id="12838" xmlns:xlink="http://www.w3.org/1999/xlink" width="200" height="200"><path d="M971.093333 512c0 88.925867-188.906667 281.6-459.946666 281.6C248.32 793.6 51.2 605.866667 51.2 512s197.12-281.6 459.946667-281.6c272.682667 0 459.946667 187.733333 459.946666 281.6zM511.146667 281.450667c-121.557333 0-221.76 102.101333-221.76 228.9024 0 126.805333 98.56 228.9024 221.76 228.9024 121.557333 0 221.76-102.101333 221.76-228.906667 0-126.7968-98.56-228.898133-221.76-228.898133z m0 83.985066c-77.205333 0-141.269333 65.873067-141.269334 146.564267s62.421333 146.56 141.269334 146.56c78.848 0 141.269333-65.8688 141.269333-146.56s-64.064-146.56-141.269333-146.56z" fill="#000000" p-id="12839"></path></svg>