<?xml version="1.0" standalone="no"?><!DOCTYPE svg PUBLIC "-//W3C//DTD SVG 1.1//EN" "http://www.w3.org/Graphics/SVG/1.1/DTD/svg11.dtd"><svg t="1775151198143" class="icon" viewBox="0 0 1024 1024" version="1.1" xmlns="http://www.w3.org/2000/svg" p-id="19649" xmlns:xlink="http://www.w3.org/1999/xlink" width="200" height="200"><path d="M963.531952 1021.91c-31.27 0-56.62-24.08-56.62-53.78a358.43 358.43 0 0 0-8.21-75.83 351.23 351.23 0 0 0-22.93-70.72 363.55 363.55 0 0 0-36.52-64 400.57 400.57 0 0 0-48.41-55.66 396.12 396.12 0 0 0-58.61-46c-18.27-10.09-29.11-29-28.12-49s13.66-37.9 32.85-46.3a59.07 59.07 0 0 1 58.41 6.33A493.39 493.39 0 0 1 870.951952 625.82a505 505 0 0 1 62 71.52 471.7 471.7 0 0 1 47 82.56 466.33 466.33 0 0 1 40.2 188.23c0 29.7-25.35 53.78-56.62 53.78zM815.751952 236.19a277.71 277.71 0 0 0-18.4-55.4 279.93 279.93 0 0 0-28.31-50.29 302.14 302.14 0 0 0-37.89-43.82 308.73 308.73 0 0 0-46.15-36C615.581952 6.16 530.271952-9.93 448.271952 6.01a328.3 328.3 0 0 0-111.55 44.63 308.13 308.13 0 0 0-46.14 36 301.53 301.53 0 0 0-37.94 43.82 295.47 295.47 0 0 0-46.43 105.69 289 289 0 0 0 0 119.38 277.5 277.5 0 0 0 18.4 55.4 279.5 279.5 0 0 0 28.31 50.28c17.51 24.65 52.75 31.16 78.71 14.52s32.8-50.1 15.29-74.75a163.46 163.46 0 0 1-18.41-31.73 181.2 181.2 0 0 1-11.6-35.49 183.15 183.15 0 0 1 0-75.83 187.64 187.64 0 0 1 29.72-67.23 213.47 213.47 0 0 1 24.35-26.89 198.47 198.47 0 0 1 28.31-23.12 186.94 186.94 0 0 1 33.69-17.22 195.63 195.63 0 0 1 37.09-11 208.62 208.62 0 0 1 79.84 0 195.63 195.63 0 0 1 37.09 11 187.27 187.27 0 0 1 33.69 17.22 191.38 191.38 0 0 1 53.46 51.13 163.94 163.94 0 0 1 18.4 31.72 181.57 181.57 0 0 1 11.62 35.5 183.49 183.49 0 0 1 0 75.83 171.75 171.75 0 0 1-11.62 35.23 171.44 171.44 0 0 1-18.11 32 211.55 211.55 0 0 1-22.29 28.23 198.54 198.54 0 0 1-28.35 23.09 186.86 186.86 0 0 1-33.65 17.24 194.93 194.93 0 0 1-37.09 11 218.61 218.61 0 0 1-42.47 2.42 536.63 536.63 0 0 0-198.17 38.19 517.28 517.28 0 0 0-84.94 44.63 493.47 493.47 0 0 0-75.63 58.92 505.6 505.6 0 0 0-62 71.52 473.48 473.48 0 0 0-48.7 82.56A466.66 466.66 0 0 0 0.951952 968.13c0 29.69 25.36 53.77 56.62 53.77s56.58-24.08 56.58-53.77a359.08 359.08 0 0 1 8.21-75.83 351.26 351.26 0 0 1 22.94-70.72 362.92 362.92 0 0 1 36.52-64 391.46 391.46 0 0 1 107-101.64 395 395 0 0 1 67.39-34.69 420.82 420.82 0 0 1 74.45-22.05 438.9 438.9 0 0 1 79.84-7.53 348 348 0 0 0 62.65-5.91 328.11 328.11 0 0 0 111.52-44.64 308.73 308.73 0 0 0 46.15-36 301.09 301.09 0 0 0 37.93-43.83 295.32 295.32 0 0 0 46.4-105.72 289 289 0 0 0 0-119.38z m0 0" fill="#1296db" p-id="19650"></path></svg>