<?xml version="1.0" standalone="no"?><!DOCTYPE svg PUBLIC "-//W3C//DTD SVG 1.1//EN" "http://www.w3.org/Graphics/SVG/1.1/DTD/svg11.dtd"><svg t="1775192041370" class="icon" viewBox="0 0 1028 1024" version="1.1" xmlns="http://www.w3.org/2000/svg" p-id="22570" xmlns:xlink="http://www.w3.org/1999/xlink" width="200.78125" height="200"><path d="M198.531842 633.164293a21.73765 21.73765 0 0 0 9.6835-25.554797A318.309908 318.309908 0 0 1 192.866392 509.689621a322.006514 322.006514 0 0 1 253.940749-314.291858 21.697469 21.697469 0 0 0 17.277615-21.175122V22.219816a21.697469 21.697469 0 0 0-24.99227-21.376026A514.752364 514.752364 0 0 0 35.680283 698.296881a21.697469 21.697469 0 0 0 31.019344 10.969276zM560.517952 173.419031a21.697469 21.697469 0 0 0 17.558878 21.215303A321.202904 321.202904 0 0 1 819.682166 609.457799a21.657289 21.657289 0 0 0 9.64332 25.635158L961.157701 711.19482a21.697469 21.697469 0 0 0 30.979164-10.888915A514.631823 514.631823 0 0 0 584.827153 0.200902a21.536747 21.536747 0 0 0-24.309201 21.456387zM781.30979 718.668393a21.657289 21.657289 0 0 0-27.041475 4.540396A320.720738 320.720738 0 0 1 273.227389 721.762292a21.657289 21.657289 0 0 0-27.121837-4.660938l-131.751854 75.981322a21.73765 21.73765 0 0 0-6.147616 32.144399 514.310379 514.310379 0 0 0 810.922817 1.687581 21.73765 21.73765 0 0 0-6.067255-32.144399z" p-id="22571" fill="#1e40af"></path></svg>