<?xml version="1.0" standalone="no"?><!DOCTYPE svg PUBLIC "-//W3C//DTD SVG 1.1//EN" "http://www.w3.org/Graphics/SVG/1.1/DTD/svg11.dtd"><svg t="1775145987637" class="icon" viewBox="0 0 1024 1024" version="1.1" xmlns="http://www.w3.org/2000/svg" p-id="4769" xmlns:xlink="http://www.w3.org/1999/xlink" width="200" height="200"><path d="M957.166098 385.666583h-17.056717v-139.50973-1.776741-0.156354c0-0.710697-0.099498-1.421393-0.184781-2.146303q0-0.298493-0.07107-0.596985c-0.099498-0.739124-0.213209-1.421393-0.355348-2.20316-0.142139-0.753338-0.32692-1.421393-0.525916-2.231587l-0.156353-0.568557c-0.198995-0.682269-0.39799-1.350323-0.639627-2.004164v-0.198995c-0.255851-0.710697-0.540129-1.421393-0.824408-2.089448l-0.255851-0.582771c-0.270065-0.611199-0.568557-1.208184-0.881263-1.805169l-0.14214-0.270065c-0.355348-0.653841-0.72491-1.307682-1.1229-1.933095l-0.355348-0.554343c-0.383776-0.582771-0.767552-1.165542-1.179757-1.734099l-0.127925-0.184782c-0.454846-0.625413-0.938119-1.222398-1.421393-1.805169l-0.39799-0.454846c-0.525915-0.596985-1.051831-1.179756-1.620388-1.734099L719.082757 10.404597c-0.568557-0.568557-1.151328-1.094473-1.748313-1.620388l-0.454846-0.383776c-0.596985-0.497488-1.19397-0.980761-1.819383-1.421393l-0.170567-0.113711c-0.568557-0.412204-1.165542-0.810194-1.762528-1.193971l-0.540129-0.341134c-0.639627-0.39799-1.293468-0.781766-1.947309-1.1229l-0.241636-0.113712c-0.611199-0.312706-1.222398-0.611199-1.847811-0.895478l-0.568558-0.25585c-0.696483-0.298493-1.421393-0.582771-2.117875-0.838622h-0.156354c-0.682269-0.241637-1.421393-0.454846-2.06102-0.653841l-0.540129-0.156353c-0.739124-0.198995-1.492463-0.383776-2.245801-0.54013-0.753338-0.142139-1.506677-0.270065-2.260015-0.369562h-0.554343c-0.72491-0.085284-1.421393-0.156353-2.20316-0.198995H297.63971a64.033758 64.033758 0 0 0-63.962688 63.962689v275.451764H66.833902a64.033758 64.033758 0 0 0-63.962688 63.962688v508.858722a111.721496 111.721496 0 0 0 110.342745 111.579356h843.952139a64.033758 64.033758 0 0 0 63.962688-63.962688V449.629272a64.033758 64.033758 0 0 0-63.962688-63.962689zM729.487355 121.330113l44.645956 44.645957L818.75084 210.622026h-89.263485zM658.417701 71.069654v146.659337a64.033758 64.033758 0 0 0 63.962688 63.962689h146.659338v103.974903H607.872963a49.748758 49.748758 0 0 0-40.978762 21.548319l-60.508704 87.898948H304.746676V71.069654zM73.940868 912.378002v-501.751756h159.736154v84.444962H218.922962a64.033758 64.033758 0 0 0-63.962689 63.962689v353.344105a40.538131 40.538131 0 0 1-81.019405 0z m876.118264 40.53813H218.439688a110.982371 110.982371 0 0 0 7.590239-40.53813V566.183504h299.032675A35.534827 35.534827 0 0 0 554.371728 550.789817l64.744454-94.05358h330.94295z" fill="#1296db" p-id="4770"></path><path d="M621.703118 621.973182h257.968629v54.012937H621.703118zM621.703118 769.186863h257.968629v54.012937H621.703118z" fill="#1296db" p-id="4771"></path></svg>