<?xml version="1.0" standalone="no"?><!DOCTYPE svg PUBLIC "-//W3C//DTD SVG 1.1//EN" "http://www.w3.org/Graphics/SVG/1.1/DTD/svg11.dtd"><svg t="1775367060348" class="icon" viewBox="0 0 1030 1024" version="1.1" xmlns="http://www.w3.org/2000/svg" p-id="6991" xmlns:xlink="http://www.w3.org/1999/xlink" width="201.171875" height="200"><path d="M979.2 454.4c-6.4 0-12.8 0-19.2 6.4l-102.4 44.8V70.4C864 32 832 0 780.8 0H236.8C192 0 153.6 32 153.6 70.4v428.8L57.6 460.8c-6.4-6.4-12.8-6.4-19.2-6.4-19.2 0-38.4 19.2-38.4 38.4v454.4c0 44.8 32 76.8 83.2 76.8h864c44.8 0 83.2-32 83.2-70.4V492.8c-12.8-19.2-25.6-38.4-51.2-38.4z m-736-384h550.4v467.2L512 659.2 243.2 537.6V70.4z m697.6 883.2H89.6V556.8l396.8 172.8 32 12.8 32-12.8 396.8-172.8-6.4 396.8z" fill="#1296db" p-id="6992"></path><path d="M358.4 288h313.6c19.2 0 38.4-19.2 38.4-38.4s-19.2-38.4-38.4-38.4H358.4c-19.2 0-38.4 19.2-38.4 38.4s19.2 38.4 38.4 38.4zM710.4 441.6c0-19.2-19.2-38.4-38.4-38.4H364.8c-19.2 0-38.4 19.2-38.4 38.4s19.2 38.4 38.4 38.4h313.6c12.8-6.4 32-25.6 32-38.4z" fill="#1296db" p-id="6993"></path></svg>