<?xml version="1.0" standalone="no"?><!DOCTYPE svg PUBLIC "-//W3C//DTD SVG 1.1//EN" "http://www.w3.org/Graphics/SVG/1.1/DTD/svg11.dtd"><svg t="1775369549738" class="icon" viewBox="0 0 1024 1024" version="1.1" xmlns="http://www.w3.org/2000/svg" p-id="23488" xmlns:xlink="http://www.w3.org/1999/xlink" width="200" height="200"><path d="M766.887936 255.50848h-511.01696c-20.160512 0-36.501504-16.34304-36.501504-36.501504s16.34304-36.501504 36.501504-36.501504h511.01696c20.160512 0 36.501504 16.34304 36.501504 36.501504s-16.34304 36.501504-36.501504 36.501504zM488.255488 693.522432H255.870976c-20.158464 0-36.501504-16.34304-36.501504-36.499456 0-20.160512 16.34304-36.501504 36.501504-36.501504h232.384512c20.160512 0 36.501504 16.34304 36.501504 36.501504s-16.34304 36.499456-36.501504 36.499456z m170.942464-219.006976H255.870976c-20.158464 0-36.501504-16.34304-36.501504-36.501504s16.34304-36.499456 36.501504-36.499456h403.326976c20.160512 0 36.501504 16.34304 36.501504 36.499456 0 20.160512-16.340992 36.501504-36.501504 36.501504z" fill="#1296db" p-id="23489"></path><path d="M912.893952 145.05984c0-39.7312-32.325632-72.056832-72.05888-72.056832H181.92384c-39.7312 0-72.05888 32.325632-72.05888 72.05888v731.910144c0 39.735296 32.325632 72.060928 72.05888 72.060928H453.07904c20.158464 0 36.501504 16.34304 36.501504 36.499456 0 20.160512-16.34304 36.501504-36.501504 36.501504H181.92384C101.9392 1022.03392 36.864 956.95872 36.864 876.97408V145.05984C36.864 65.077248 101.9392 0 181.925888 0h658.909184c79.986688 0 145.05984 65.0752 145.05984 145.05984V494.03904c0 20.158464-16.34304 36.501504-36.499456 36.501504-20.160512 0-36.501504-16.34304-36.501504-36.501504V145.05984z" fill="#1296db" p-id="23490"></path><path d="M769.447936 866.496512l-86.603776 86.605824c-15.972352 15.970304-15.972352 41.865216 0 57.83552 15.970304 15.972352 41.865216 15.972352 57.83552 0l86.605824-86.603776 87.021568 87.023616c15.972352 15.970304 41.867264 15.970304 57.837568 0 15.972352-15.972352 15.972352-41.867264 0-57.837568l-87.021568-87.023616 87.351296-87.351296c15.970304-15.970304 15.970304-41.865216 0-57.83552-15.970304-15.9744-41.865216-15.9744-57.83552 0l-87.353344 87.351296-86.933504-86.935552c-15.972352-15.970304-41.867264-15.970304-57.837568 0-15.972352 15.972352-15.972352 41.867264 0 57.837568l86.933504 86.933504z" fill="#1296db" p-id="23491"></path></svg>